<svg width="32" height="32" viewBox="0 0 32 32" fill="none" xmlns="http://www.w3.org/2000/svg">
<g clip-path="url(#clip0_1_4)">
<circle cx="16" cy="16" r="16" fill="#117050"/>
<path d="M8 24V22.2222H22.2222V24H8ZM11.5556 20.4444C10.5778 20.4444 9.74074 20.0963 9.04444 19.4C8.34815 18.7037 8 17.8667 8 16.8889V8H22.2222C22.7111 8 23.1296 8.17407 23.4778 8.52222C23.8259 8.87037 24 9.28889 24 9.77778V12.4444C24 12.9333 23.8259 13.3519 23.4778 13.7C23.1296 14.0481 22.7111 14.2222 22.2222 14.2222H20.4444V16.8889C20.4444 17.8667 20.0963 18.7037 19.4 19.4C18.7037 20.0963 17.8667 20.4444 16.8889 20.4444H11.5556ZM11.5556 18.6667H16.8889C17.3778 18.6667 17.7963 18.4926 18.1444 18.1444C18.4926 17.7963 18.6667 17.3778 18.6667 16.8889V9.77778H9.77778V16.8889C9.77778 17.3778 9.95185 17.7963 10.3 18.1444C10.6481 18.4926 11.0667 18.6667 11.5556 18.6667ZM20.4444 12.4444H22.2222V9.77778H20.4444V12.4444ZM11.5556 18.6667H9.77778H18.6667H11.5556Z" fill="white"/>
</g>
<defs>
<clipPath id="clip0_1_4">
<rect width="32" height="32" fill="white"/>
</clipPath>
</defs>
</svg>
